<?xml version="1.0" standalone="no"?><!DOCTYPE svg PUBLIC "-//W3C//DTD SVG 1.1//EN" "http://www.w3.org/Graphics/SVG/1.1/DTD/svg11.dtd"><svg t="1602321001083" class="icon" viewBox="0 0 1024 1024" version="1.1" xmlns="http://www.w3.org/2000/svg" p-id="9261" xmlns:xlink="http://www.w3.org/1999/xlink" width="32" height="32"><defs><style type="text/css"></style></defs><path d="M810.666667 554.666667h-42.666667v-42.666667h42.666667c-4.266667-59.733333-29.866667-115.2-68.266667-162.133333l-8.533333 8.533333-29.866667-29.866667 8.533333-8.533333c-42.666667-38.4-98.133333-59.733333-157.866666-64v42.666667h-42.666667V256c-59.733333 4.266667-115.2 29.866667-157.866667 64l4.266667 4.266667-29.866667 34.133333-4.266666-4.266667c-38.4 42.666667-64 98.133333-68.266667 157.866667h42.666667v42.666667H256c4.266667 59.733333 29.866667 115.2 64 157.866666l8.533333-8.533333 29.866667 29.866667-8.533333 8.533333c42.666667 38.4 98.133333 64 162.133333 68.266667v-42.666667h42.666667v42.666667c59.733333-4.266667 115.2-29.866667 157.866666-64l-8.533333-8.533334 29.866667-29.866666 8.533333 8.533333c38.4-46.933333 64-102.4 68.266667-162.133333z m-277.333334 341.333333C332.8 896 170.666667 733.866667 170.666667 533.333333S332.8 170.666667 533.333333 170.666667 896 332.8 896 533.333333 733.866667 896 533.333333 896z m0-554.666667l85.333334 192h-170.666667l85.333333-192z" fill="#ffffff" p-id="9262"></path></svg>